<?xml version="1.0" encoding="UTF-8"?>
<svg id="Ebene_2" data-name="Ebene 2" xmlns="http://www.w3.org/2000/svg" viewBox="0 0 579.19 579.19">
  <defs>
    <style>
      .cls-1 {
        fill: #51bcbb;
      }

      .cls-1, .cls-2, .cls-3, .cls-4, .cls-5, .cls-6 {
        stroke-width: 0px;
      }

      .cls-2 {
        fill: #305696;
      }

      .cls-3 {
        fill: #00998d;
      }

      .cls-4 {
        fill: #ee724f;
      }

      .cls-5 {
        fill: #ea5168;
      }

      .cls-6 {
        fill: #f6d35c;
      }
    </style>
  </defs>
  <g id="Ebene_1-2" data-name="Ebene 1">
    <g>
      <path class="cls-6" d="m289.59,289.59c107.19,0,200.77,58.24,250.84,144.8,24.64-42.6,38.75-92.05,38.75-144.8C579.19,129.66,449.53,0,289.59,0c-52.75,0-102.2,14.11-144.8,38.75,86.56,50.07,144.8,143.65,144.8,250.84Z"/>
      <path class="cls-3" d="m289.59,579.19c-52.75,0-102.2-14.11-144.8-38.75C102.2,565.08,52.75,579.19,0,579.19H0s579.19,0,579.19,0c0-52.75-14.11-102.2-38.75-144.8-50.07,86.56-143.65,144.8-250.84,144.8Z"/>
      <path class="cls-1" d="m289.59,289.59c0,107.19-58.24,200.77-144.8,250.84,42.6,24.64,92.05,38.75,144.8,38.75,107.19,0,200.77-58.24,250.84-144.8-50.07-86.56-143.65-144.8-250.84-144.8Z"/>
      <path class="cls-5" d="m0,289.59C0,182.41,58.24,88.82,144.8,38.75,102.2,14.11,52.75,0,0,0v579.19h0C0,526.44,14.11,476.99,38.75,434.39,14.11,391.8,0,342.34,0,289.59Z"/>
      <path class="cls-4" d="m0,289.59C0,342.34,14.11,391.8,38.75,434.39c50.07-86.56,143.65-144.8,250.84-144.8,0-107.19-58.24-200.77-144.8-250.84C58.24,88.82,0,182.41,0,289.59Z"/>
      <path class="cls-2" d="m38.75,434.39C14.11,476.99,0,526.44,0,579.19c52.75,0,102.2-14.11,144.8-38.75,86.56-50.07,144.8-143.65,144.8-250.84-107.19,0-200.77,58.24-250.84,144.8Z"/>
    </g>
  </g>
</svg>