<?xml version="1.0" encoding="UTF-8"?>
<svg id="Ebene_2" data-name="Ebene 2" xmlns="http://www.w3.org/2000/svg" viewBox="0 0 825.17 298.32">
  <defs>
    <style>
      .cls-1 {
        fill: #29487e;
      }

      .cls-1, .cls-2, .cls-3, .cls-4, .cls-5, .cls-6 {
        stroke-width: 0px;
      }

      .cls-2 {
        fill: #51bcbb;
      }

      .cls-3 {
        fill: #00998d;
      }

      .cls-4 {
        fill: #ee724f;
      }

      .cls-5 {
        fill: #ea5168;
      }

      .cls-6 {
        fill: #f6d35c;
      }
    </style>
  </defs>
  <g id="Ebene_1-2" data-name="Ebene 1">
    <g>
      <path class="cls-1" d="m365.96,73.25h7.21v77.24h-7.21v-77.24Z"/>
      <path class="cls-1" d="m434.87,130.68l5.99,3.2c-1.93,3.89-4.2,7.03-6.8,9.39-2.61,2.37-5.54,4.17-8.79,5.41-3.25,1.24-6.92,1.85-11.02,1.85-9.07,0-16.17-2.97-21.28-8.91-5.11-5.94-7.67-12.65-7.67-20.13,0-7.08,2.17-13.37,6.5-18.89,5.48-7.04,12.85-10.56,22.09-10.56s17.01,3.61,22.7,10.82c4.03,5.08,6.06,11.41,6.09,18.99h-50.02c.13,6.5,2.2,11.82,6.2,15.97,3.99,4.15,8.92,6.22,14.78,6.22,2.84,0,5.6-.5,8.28-1.5,2.67-1,4.95-2.31,6.83-3.94s3.92-4.27,6.12-7.92Zm0-14.98c-.95-3.83-2.34-6.88-4.16-9.17s-4.25-4.13-7.26-5.54c-3.01-1.4-6.18-2.11-9.5-2.11-5.45,0-10.14,1.76-14.07,5.28-2.84,2.57-4.99,6.42-6.45,11.53h41.44Z"/>
      <path class="cls-1" d="m484.02,99.55l-4.57,4.77c-3.86-3.72-7.6-5.59-11.22-5.59-2.34,0-4.33.76-5.99,2.29-1.66,1.52-2.49,3.33-2.49,5.43,0,1.76.69,3.45,2.08,5.08,1.35,1.73,4.21,3.71,8.58,5.94,5.35,2.74,8.97,5.4,10.87,7.97,1.86,2.61,2.79,5.54,2.79,8.79,0,4.54-1.6,8.39-4.8,11.55-3.2,3.17-7.2,4.75-12.01,4.75-3.22,0-6.29-.69-9.22-2.06-2.93-1.37-5.34-3.29-7.24-5.76l4.52-5.13c3.66,4.13,7.53,6.2,11.63,6.2,2.84,0,5.27-.92,7.29-2.77,2.01-1.84,3.02-4,3.02-6.47,0-2.06-.66-3.89-1.98-5.48-1.32-1.59-4.32-3.59-8.99-5.99-5.04-2.54-8.46-5.09-10.26-7.67-1.83-2.5-2.74-5.38-2.74-8.63,0-4.23,1.45-7.74,4.34-10.54s6.53-4.19,10.89-4.19c5.11,0,10.27,2.51,15.49,7.52Z"/>
      <path class="cls-1" d="m524.65,99.55l-4.57,4.77c-3.86-3.72-7.6-5.59-11.22-5.59-2.34,0-4.33.76-5.99,2.29-1.66,1.52-2.49,3.33-2.49,5.43,0,1.76.69,3.45,2.08,5.08,1.35,1.73,4.21,3.71,8.58,5.94,5.35,2.74,8.97,5.4,10.87,7.97,1.86,2.61,2.79,5.54,2.79,8.79,0,4.54-1.6,8.39-4.8,11.55-3.2,3.17-7.2,4.75-12.01,4.75-3.22,0-6.29-.69-9.22-2.06-2.93-1.37-5.34-3.29-7.24-5.76l4.52-5.13c3.66,4.13,7.53,6.2,11.63,6.2,2.84,0,5.27-.92,7.29-2.77,2.01-1.84,3.02-4,3.02-6.47,0-2.06-.66-3.89-1.98-5.48-1.32-1.59-4.32-3.59-8.99-5.99-5.04-2.54-8.46-5.09-10.26-7.67-1.83-2.5-2.74-5.38-2.74-8.63,0-4.23,1.45-7.74,4.34-10.54s6.53-4.19,10.89-4.19c5.11,0,10.27,2.51,15.49,7.52Z"/>
      <path class="cls-1" d="m563.6,92.04c8.56,0,15.67,3.1,21.33,9.29,5.11,5.69,7.67,12.41,7.67,20.16s-2.71,14.53-8.12,20.34c-5.42,5.81-12.37,8.71-20.87,8.71s-15.5-2.9-20.9-8.71c-5.4-5.81-8.1-12.58-8.1-20.34s2.56-14.42,7.67-20.11c5.65-6.23,12.76-9.34,21.33-9.34Zm0,7.01c-5.92,0-11.02,2.2-15.29,6.6-4.27,4.4-6.4,9.72-6.4,15.95,0,4.03.97,7.79,2.92,11.3,1.95,3.5,4.58,6.2,7.9,8.07,3.32,1.88,6.94,2.82,10.87,2.82s7.64-.94,10.94-2.82,5.92-4.57,7.85-8.07,2.89-7.27,2.89-11.3c0-6.23-2.13-11.54-6.4-15.95-4.27-4.4-9.36-6.6-15.29-6.6Z"/>
      <path class="cls-1" d="m605.74,129.36l-.1-5.94c-.1-2.91.02-5.38.36-7.41.74-6.4,2.37-11.09,4.88-14.07,2.44-2.61,4.93-4.62,7.46-6.04,4.2-1.79,8.99-2.64,14.37-2.54,4.2,0,8.08,1.06,11.65,3.17,3.57,2.12,6.12,4.96,7.64,8.53,1.52,3.57,2.29,9.17,2.29,16.78v28.64h-7.11v-26.56c0-6.43-.27-10.73-.81-12.9-.85-3.69-2.52-6.3-5.03-7.85-2.51-1.54-6.21-2.31-11.12-2.31-4.33,0-8.19,1.25-11.58,3.76-3.39,2.51-4.96,5.92-4.72,10.26-.64,2.78-.96,7.84-.96,15.18v20.41h-7.21v-21.12Z"/>
    </g>
    <g>
      <path class="cls-1" d="m389.01,191.66c8.56,0,15.67,3.1,21.33,9.29,5.11,5.69,7.67,12.41,7.67,20.16s-2.71,14.53-8.12,20.34c-5.42,5.81-12.37,8.71-20.87,8.71s-15.5-2.9-20.9-8.71c-5.4-5.81-8.1-12.58-8.1-20.34s2.56-14.42,7.67-20.11c5.65-6.23,12.76-9.34,21.33-9.34Zm0,7.01c-5.92,0-11.02,2.2-15.29,6.6-4.27,4.4-6.4,9.72-6.4,15.95,0,4.03.97,7.79,2.92,11.3,1.95,3.5,4.58,6.2,7.9,8.07,3.32,1.88,6.94,2.82,10.87,2.82s7.64-.94,10.94-2.82,5.92-4.57,7.85-8.07,2.89-7.27,2.89-11.3c0-6.23-2.13-11.54-6.4-15.95-4.27-4.4-9.36-6.6-15.29-6.6Z"/>
      <path class="cls-1" d="m428.47,224.62v-6.7c.54-3.35,1.32-6.08,2.34-8.18,2.37-5.82,5.55-10.09,9.55-12.8,3.99-2.71,7.31-4.06,9.95-4.06,1.96,0,4.06.64,6.3,1.93l-3.71,5.99c-3.15-1.15-6.27-.22-9.37,2.79-3.1,3.01-5.24,6.3-6.42,9.85-.88,3.15-1.32,9.06-1.32,17.72v18.84h-7.31v-25.39Z"/>
      <path class="cls-1" d="m517.89,237.46c0,7.82-.69,13.54-2.08,17.16-1.86,5.11-5.12,9.05-9.78,11.81-4.66,2.76-10.23,4.14-16.73,4.14-4.81,0-9.11-.68-12.9-2.03-3.79-1.35-6.89-3.17-9.29-5.43-2.4-2.27-4.6-5.59-6.6-9.95h7.77c2.13,3.69,4.87,6.42,8.2,8.18,3.33,1.76,7.49,2.64,12.47,2.64s9-.91,12.37-2.74c3.37-1.83,5.76-4.11,7.19-6.86s2.13-7.19,2.13-13.36v-2.84c-2.67,3.42-5.97,6.04-9.88,7.87s-8.03,2.74-12.37,2.74c-5.11,0-9.93-1.27-14.45-3.81s-8.01-5.97-10.46-10.28c-2.46-4.32-3.68-9.05-3.68-14.19s1.28-9.94,3.83-14.4c2.56-4.45,6.1-7.97,10.64-10.56,4.54-2.59,9.29-3.88,14.27-3.88,4.2,0,8.01.64,11.43,1.93,2.88,1.05,6.28,3.06,10.21,6.04,3.32,2.74,5.92,7.97,7.82,15.69-.07,1.02-.1,8.4-.1,22.14Zm-28.44-38.9c-4.06,0-7.83.98-11.3,2.95-3.47,1.96-6.2,4.67-8.18,8.12s-2.97,7.19-2.97,11.22c0,6.13,2.05,11.19,6.14,15.18,4.1,4,9.39,5.99,15.89,5.99s11.95-1.98,15.95-5.94c3.99-3.96,5.99-9.17,5.99-15.64,0-4.2-.92-7.94-2.77-11.22-1.85-3.28-4.45-5.88-7.82-7.79-3.37-1.91-7.02-2.87-10.94-2.87Z"/>
      <path class="cls-1" d="m559.43,191.66c8.56,0,15.67,3.1,21.33,9.29,5.21,5.65,7.82,12.37,7.82,20.16.07,19.23.07,29,0,29.3h-7.57v-12.64c-3.96,7.38-11.16,11.51-21.58,12.39-8.53,0-15.5-2.9-20.9-8.71-5.4-5.81-8.1-12.58-8.1-20.34s2.56-14.42,7.67-20.11c5.65-6.23,12.76-9.34,21.33-9.34Zm0,7.01c-5.92,0-11.02,2.2-15.29,6.6-4.27,4.4-6.4,9.72-6.4,15.95,0,4.03,1.09,7.91,3.28,11.63,2.18,3.72,5.88,6.87,11.1,9.45,13.07,2.91,22.36-3.03,27.88-17.82.3-4.74-.2-9.28-1.52-13.61-.95-1.96-2.25-3.83-3.91-5.59-4.16-4.4-9.21-6.6-15.13-6.6Z"/>
      <path class="cls-1" d="m602.44,228.98l-.1-5.94c-.1-2.91.02-5.38.36-7.41.74-6.4,2.37-11.09,4.88-14.07,2.44-2.61,4.93-4.62,7.46-6.04,4.2-1.79,8.99-2.64,14.37-2.54,4.2,0,8.08,1.06,11.65,3.17,3.57,2.12,6.12,4.96,7.64,8.53,1.52,3.57,2.29,9.17,2.29,16.78v28.64h-7.11v-26.56c0-6.43-.27-10.73-.81-12.9-.85-3.69-2.52-6.3-5.03-7.85-2.51-1.54-6.21-2.31-11.12-2.31-4.33,0-8.19,1.25-11.58,3.76-3.39,2.51-4.96,5.92-4.72,10.26-.64,2.78-.96,7.84-.96,15.18v20.41h-7.21v-21.12Z"/>
      <path class="cls-1" d="m668.76,171.5c1.62,0,3.02.58,4.19,1.73,1.17,1.15,1.75,2.54,1.75,4.16s-.58,3.02-1.75,4.19-2.56,1.75-4.19,1.75-3.01-.58-4.16-1.75c-1.15-1.17-1.73-2.56-1.73-4.19s.58-3.01,1.73-4.16,2.54-1.73,4.16-1.73Zm-3.55,22.9h7.16v55.71h-7.16v-55.71Z"/>
      <path class="cls-1" d="m682.68,193.79h40.88l-31.59,49.97h30.57v6.35h-42.86l31.48-50.02h-28.49v-6.3Z"/>
      <path class="cls-1" d="m778.6,230.3l5.99,3.2c-1.93,3.89-4.2,7.03-6.8,9.39-2.61,2.37-5.54,4.17-8.79,5.41-3.25,1.24-6.92,1.85-11.02,1.85-9.07,0-16.17-2.97-21.28-8.91-5.11-5.94-7.67-12.65-7.67-20.13,0-7.08,2.17-13.37,6.5-18.89,5.48-7.04,12.85-10.56,22.09-10.56s17.01,3.61,22.7,10.82c4.03,5.08,6.06,11.41,6.09,18.99h-50.02c.13,6.5,2.2,11.82,6.2,15.97,3.99,4.15,8.92,6.22,14.78,6.22,2.84,0,5.6-.5,8.28-1.5,2.67-1,4.95-2.31,6.83-3.94s3.92-4.27,6.12-7.92Zm0-14.98c-.95-3.83-2.34-6.88-4.16-9.17s-4.25-4.13-7.26-5.54c-3.01-1.4-6.18-2.11-9.5-2.11-5.45,0-10.14,1.76-14.07,5.28-2.84,2.57-4.99,6.42-6.45,11.53h41.44Z"/>
      <path class="cls-1" d="m797.04,224.62v-6.7c.54-3.35,1.32-6.08,2.34-8.18,2.37-5.82,5.55-10.09,9.55-12.8,3.99-2.71,7.31-4.06,9.95-4.06,1.96,0,4.06.64,6.3,1.93l-3.71,5.99c-3.15-1.15-6.27-.22-9.37,2.79-3.1,3.01-5.24,6.3-6.42,9.85-.88,3.15-1.32,9.06-1.32,17.72v18.84h-7.31v-25.39Z"/>
    </g>
    <g>
      <path class="cls-6" d="m149.16,149.16c55.21,0,103.41,30,129.2,74.58,12.69-21.94,19.96-47.41,19.96-74.58C298.32,66.78,231.54,0,149.16,0c-27.17,0-52.64,7.27-74.58,19.96,44.58,25.79,74.58,73.99,74.58,129.2Z"/>
      <path class="cls-3" d="m149.16,298.32c-27.17,0-52.64-7.27-74.58-19.96C52.64,291.05,27.17,298.32,0,298.32H0s298.32,0,298.32,0c0-27.17-7.27-52.64-19.96-74.58-25.79,44.58-73.99,74.58-129.2,74.58Z"/>
      <path class="cls-2" d="m149.16,149.16c0,55.21-30,103.41-74.58,129.2,21.94,12.69,47.41,19.96,74.58,19.96,55.21,0,103.41-30,129.2-74.58-25.79-44.58-73.99-74.58-129.2-74.58Z"/>
      <path class="cls-5" d="m0,149.16C0,93.95,30,45.75,74.58,19.96,52.64,7.27,27.17,0,0,0v298.32h0C0,271.15,7.27,245.68,19.96,223.74,7.27,201.8,0,176.33,0,149.16Z"/>
      <path class="cls-4" d="m0,149.16C0,176.33,7.27,201.8,19.96,223.74c25.79-44.58,73.99-74.58,129.2-74.58,0-55.21-30-103.41-74.58-129.2C30,45.75,0,93.95,0,149.16Z"/>
      <path class="cls-1" d="m19.96,223.74C7.27,245.68,0,271.15,0,298.32c27.17,0,52.64-7.27,74.58-19.96,44.58-25.79,74.58-73.99,74.58-129.2-55.21,0-103.41,30-129.2,74.58Z"/>
    </g>
  </g>
</svg>